# xmcd
# 
# Track frame offsets:
#     150
#     16406
#     32100
#     44572
#     57437
#     73445
#     90361
#     108192
#     118769
#     131222
#     141958
#     160866
#     179682
#     196302
#     212691
#     225265
# 
# Disc length: 3215
# 
# Revision: 0
# Processed by: cddbd v1.5.2PL0 Copyright (c) Steve Scherf et al.
# Submitted via: fre:ac v1.0.17
# 
DISCID=ea0c8d10
DTITLE=Banaszak and The Best - Jump Blues
DYEAR=0
DGENRE=Blues
TTITLE0=Gotowi gotować
TTITLE1=Czy to Ty?
TTITLE2=Jak wierny pies
TTITLE3=Komornik
TTITLE4=Hej wszyscy razem
TTITLE5=Między nocą a dniem
TTITLE6=Caldonia
TTITLE7=Nie widziałem Ciebie tutaj
TTITLE8=Hej dziewczyno
TTITLE9=Dlaczego
TTITLE10=Tak dobrze mi tu
TTITLE11=Gdy wracam
TTITLE12=Znowu w drogę
TTITLE13=Lek
TTITLE14=Full kobiet
TTITLE15=Mam czas
EXTD=
EXTT0=
EXTT1=
EXTT2=
EXTT3=
EXTT4=
EXTT5=
EXTT6=
EXTT7=
EXTT8=
EXTT9=
EXTT10=
EXTT11=
EXTT12=
EXTT13=
EXTT14=
EXTT15=
PLAYORDER=
